<svg width="160" height="126" viewBox="0 0 160 126" fill="none" xmlns="http://www.w3.org/2000/svg" class="dark-fill">
  <path
    d="M9.33684 5.82392L0.122131 11.1925V62.875V114.558L9.33684 119.926C21.1958 126.897 25.3624 127.138 25.3624 120.888C25.3624 117.923 24.5611 117.282 14.7855 111.753L8.53556 108.227V62.875V17.5226L14.7855 13.997C24.5611 8.46815 25.3624 7.82712 25.3624 4.86239C25.3624 -1.38759 21.1958 -1.1472 9.33684 5.82392Z"
    fill="#1a1a1a" />
  <path
    d="M35.3784 10.071C26.0836 15.4395 17.9907 20.2472 17.3496 20.8882C16.308 21.9299 16.1477 27.7792 15.9073 62.2342C15.6669 106.946 15.5868 106.144 20.7951 106.144C22.2374 106.144 23.84 105.744 24.4009 105.183C25.122 104.462 25.3624 94.6059 25.3624 65.6797V27.2183L38.8239 19.4459C46.1957 15.1991 52.8463 11.4331 53.4873 11.1927C54.2085 10.9524 57.1732 12.1543 60.4585 13.9972L66.2277 17.3626V60.3913C66.2277 101.096 66.3078 103.58 67.67 104.782C69.5129 106.465 72.9584 106.545 74.561 104.862C75.6828 103.74 75.843 98.452 75.843 58.1477V12.635L74.0802 11.0325C71.0353 8.22801 56.3719 0.375473 54.2085 0.375473C53.0867 0.375473 44.6733 4.70238 35.3784 10.071Z"
    fill="#1a1a1a" />
  <path
    d="M94.9135 5.02287C90.6667 7.58696 86.5 10.3113 85.5385 11.1126C83.8558 12.635 83.8558 12.8754 83.8558 62.8752V113.115L85.6987 114.718C88.9039 117.683 103.167 125.375 105.33 125.375C106.692 125.375 114.465 121.369 125.122 115.119C145.554 103.26 144.272 105.023 143.791 89.8783C143.471 78.6604 144.032 79.4617 131.372 72.2502C118.311 64.8784 117.51 65.4393 117.51 82.3463C117.51 95.1668 117.99 96.5289 122.237 96.5289C125.602 96.5289 126.644 94.6059 127.125 87.6348L127.526 81.3046L130.971 83.388L134.336 85.3912V91.9617V98.6123L120.074 106.785C112.221 111.272 105.57 114.958 105.33 114.958C105.01 114.958 102.285 113.516 99.1602 111.673L93.4712 108.388V62.8752V17.3626L100.122 13.5966C110.378 7.66709 111.74 5.98441 109.016 2.13826C107.013 -0.746346 103.647 -0.0251923 94.9135 5.02287Z"
    fill="#1a1a1a" />
  <path
    d="M120.154 9.82995C111.26 15.0383 103.247 19.9261 102.365 20.7273C100.683 22.2498 100.683 22.8107 100.683 62.9548C100.683 107.666 100.522 106.144 105.49 106.144C110.298 106.144 110.298 106.464 110.298 64.7977V26.9773L124.32 18.8844C132.013 14.3972 138.503 10.7915 138.824 10.7915C139.064 10.7915 142.029 12.3139 145.234 14.1569L151.163 17.5222V33.7882V49.974L143.391 54.5413C139.064 57.1054 135.298 59.5093 134.977 59.99C133.054 62.7945 135.458 67.6823 138.824 67.6823C140.346 67.6823 155.971 58.9484 158.615 56.6247C159.897 55.5029 159.977 53.5798 159.817 33.3074L159.577 11.1921L150.362 5.82355C144.352 2.21779 140.346 0.374847 138.743 0.454979C137.141 0.454979 130.731 3.74023 120.154 9.82995Z"
    fill="#1a1a1a" />
  <path
    d="M43.3912 24.8147C38.5836 27.6191 34.0964 30.7441 33.6156 31.7858C32.9746 32.9877 32.574 37.3947 32.574 44.2056C32.574 53.821 32.7342 55.0229 34.1765 56.4652C36.1797 58.4684 39.1444 58.5485 40.8271 56.6254C41.9489 55.4235 42.1893 53.3402 42.1893 45.9684V36.8338L45.3944 34.9909C47.0771 34.0294 48.6797 33.2281 48.9201 33.2281C49.2406 33.2281 49.4008 35.9524 49.4008 39.2377C49.4008 44.2056 49.7213 45.5678 51.0034 46.8498C52.9265 48.7729 54.8495 48.853 57.2534 47.1703C58.936 46.0486 59.0162 45.4075 59.0162 34.0294C59.0162 17.0423 57.8143 16.3211 43.3912 24.8147Z"
    fill="#1a1a1a" />
  <path
    d="M127.525 24.8941C122.718 27.7787 118.471 30.5031 118.151 31.064C116.788 33.0672 117.83 36.7531 120.074 37.955C122.397 39.3172 122.798 39.1569 130.17 34.83L134.336 32.4261V36.3524V40.3588L126.564 44.9261C122.237 47.4902 118.471 49.894 118.07 50.3748C116.788 52.2979 117.91 55.9838 120.154 57.2658C122.237 58.3876 122.558 58.3075 126.804 56.0639C136.42 50.8556 141.948 47.1697 142.91 45.2466C144.272 42.5223 144.272 24.7339 142.91 22.0095C141.067 18.3236 137.541 18.9647 127.525 24.8941Z"
    fill="#1a1a1a" />
  <path
    d="M43.6316 63.356C37.7823 66.8015 34.0163 69.4457 33.4554 70.6476C32.8945 71.9297 32.574 81.0643 32.574 97.17C32.574 124.814 32.6541 125.375 37.7021 125.375C39.2246 125.375 40.8271 124.894 41.3079 124.333C41.8688 123.612 42.2694 115.359 42.3496 99.2533L42.5899 75.2951L46.0355 73.4521L49.4008 71.6092V92.3623C49.4008 111.433 49.481 113.196 50.8431 114.397C52.9265 116.321 57.1732 116.16 58.2149 114.237C58.6957 113.196 59.0162 103.019 59.0162 86.6732C59.0162 62.5547 58.936 60.6316 57.5739 59.4297C56.7726 58.6284 55.4104 58.0676 54.529 58.0676C53.7277 58.0676 48.8399 60.4714 43.6316 63.356Z"
    fill="#1a1a1a" />
  <path
    d="M152.445 68.9647C151.324 70.0064 151.163 72.9711 151.163 89.2371V108.227L144.993 111.753C135.138 117.282 134.336 117.923 134.336 120.888C134.336 127.138 138.503 126.897 150.362 119.926L159.577 114.558L159.817 92.1217C159.977 71.7692 159.897 69.6057 158.615 68.6442C156.772 67.282 153.968 67.4423 152.445 68.9647Z"
    fill="#1a1a1a" />
</svg>